<?xml version="1.0" encoding="UTF-8" standalone="no"?>
<!-- Generator: Adobe Illustrator 16.0.0, SVG Export Plug-In . SVG Version: 6.00 Build 0)  -->

<svg
   xmlns:dc="http://purl.org/dc/elements/1.1/"
   xmlns:cc="http://creativecommons.org/ns#"
   xmlns:rdf="http://www.w3.org/1999/02/22-rdf-syntax-ns#"
   xmlns:svg="http://www.w3.org/2000/svg"
   xmlns="http://www.w3.org/2000/svg"
   xmlns:sodipodi="http://sodipodi.sourceforge.net/DTD/sodipodi-0.dtd"
   xmlns:inkscape="http://www.inkscape.org/namespaces/inkscape"
   version="1.1"
   id="Layer_1"
   x="0px"
   y="0px"
   width="961.83698"
   height="103.43"
   viewBox="0 0 961.83698 103.43"
   enable-background="new 0 0 1024 540"
   xml:space="preserve"
   inkscape:version="0.91 r13725"
   sodipodi:docname="event.svg"><metadata
     id="metadata9"><rdf:RDF><cc:Work
         rdf:about=""><dc:format>image/svg+xml</dc:format><dc:type
           rdf:resource="http://purl.org/dc/dcmitype/StillImage" /><dc:title></dc:title></cc:Work></rdf:RDF></metadata><defs
     id="defs7" /><sodipodi:namedview
     pagecolor="#ffffff"
     bordercolor="#666666"
     borderopacity="1"
     objecttolerance="10"
     gridtolerance="10"
     guidetolerance="10"
     inkscape:pageopacity="0"
     inkscape:pageshadow="2"
     inkscape:window-width="1330"
     inkscape:window-height="747"
     id="namedview5"
     showgrid="false"
     fit-margin-top="0"
     fit-margin-left="0"
     fit-margin-right="0"
     fit-margin-bottom="0"
     inkscape:zoom="0.25488281"
     inkscape:cx="443.5308"
     inkscape:cy="-10.176985"
     inkscape:window-x="36"
     inkscape:window-y="21"
     inkscape:window-maximized="1"
     inkscape:current-layer="Layer_1" /><path
     d="m 844.833,85.265 c 0.375,1.24 0.643,2.249 0.711,2.794 -1.486,0.1 -3.629,-0.237 -4.43,-0.168 -1.49,0.131 -0.838,0.067 -2.861,1.219 -2.922,1.661 -2.963,2.163 -4.766,4.636 l -2.1,-0.493 c -0.074,-0.001 -0.25,0.01 -0.324,0.019 -0.074,0.009 -0.248,0.058 -0.328,0.076 -4.809,1.148 -15.467,1.999 -19.955,-0.027 -0.066,-0.204 -2.871,-2.897 -0.67,-2.62 5.623,0.709 1.602,-9.456 2.4,-14.186 0.893,1.468 1.961,1.541 2.941,2.313 0.061,-0.257 -1.287,-2.045 -1.17,-2.188 -3.4,-4.19 3.051,-13.69 -2.971,-18.583 -2.805,-1.938 -5.652,0.507 -9.129,0.079 -4.209,-0.516 -4.994,-1.683 -9.246,0.467 -6.063,4.262 -10.561,8.451 -10.496,17.562 0.176,0.729 1.02,-2.897 1.162,-2.137 1.012,5.399 1.16,11.572 -0.113,17.723 l -3.074,-1.052 -0.326,-15.449 0.984,-0.436 c -2.182,-4.097 -7.303,0.665 -13.266,-1.235 -0.074,-1.141 -0.158,-3.287 0.229,-4.374 l 1.854,-1.208 c -3.574,-0.254 -1.977,1.228 -1.467,-1.474 -0.131,0.113 -0.268,0.297 -0.352,0.374 -0.314,0.149 -0.617,0.25 -0.914,0.327 -0.016,-0.058 -0.027,-0.115 -0.039,-0.175 1.213,-0.526 2.143,-1.242 2.842,-2.113 0.08,-0.102 0.158,-0.205 0.232,-0.312 0.07,-0.023 0.137,-0.05 0.203,-0.078 0.615,-0.268 1.162,-0.763 1.654,-1.436 -0.395,0.442 -0.943,0.813 -1.549,1.041 0.426,-0.72 0.727,-1.521 0.924,-2.391 -0.572,1.747 -2.277,3.833 -4.316,4.833 0.066,-0.645 0.461,-1.305 1.053,-1.805 -0.736,0.521 -1.238,1.045 -1.441,1.57 -0.121,0.322 -0.135,0.645 -0.02,0.967 -0.551,0.107 -1.09,0.164 -1.648,0.311 0,-0.176 -0.033,-0.352 -0.1,-0.527 -0.203,-0.526 -0.705,-1.05 -1.441,-1.57 0.592,0.5 0.984,1.159 1.051,1.804 -2.037,-1 -3.742,-3.086 -4.316,-4.833 0.273,1.2 0.744,2.271 1.467,3.175 0.697,0.868 1.625,1.583 2.832,2.11 -0.504,0.185 -1.035,0.47 -1.613,0.948 l 0.645,0.497 1.592,-0.026 c 1.721,1.95 0.162,8.563 1.43,12.275 l 0,2.684 c -2.742,-1.782 -3.398,-3.627 -7.895,-7.982 l -4.385,-3.927 c -1.041,-1.286 0.006,-0.192 -0.742,-1.164 -2.393,-3.032 -6.883,0.019 -12.777,-8.162 0.705,-2.404 1.279,-1.68 0.625,-3.981 -3.377,-0.271 -2.602,2.179 -8.775,-4.063 -2.521,-2.202 -4.156,-3.952 -7.779,-5.906 -2.957,4.998 -8.691,14.365 -11.684,13.383 l 0,-10.781 -0.896,0 0,-6.079 -2.283,0 -0.213,-3.368 0.416,-2.931 3.756,-3.473 -12.518,-5.428 -9.258,-9.391 -0.545,-4.349 -0.559,4.462 -9.529,9.169 -12.24,4.232 4.174,4.343 -0.066,0.43 0.121,0 0,5.952 -1.559,0 -0.166,0.564 -0.07,0.249 0,1.521 -0.424,0 -0.201,0.726 0.139,8.467 c -2.555,4.339 -6.305,7.745 -9.459,8.467 l 0,-0.447 c -2.891,-1.572 -2.621,-4.862 -4.4,-7.502 l -5.404,-6.474 c 6.303,-6.793 0.299,-18.002 -5.596,-17.737 -2.346,0.104 -0.969,1.7 -3.854,1.859 -1.338,0.074 -2.449,-0.528 -4.123,-0.727 -0.813,-0.097 -2.393,-0.184 -3.814,-0.119 -2.234,0.1 -2.43,0.742 -3.506,0.54 -2.541,-0.476 0,0 -3.846,-0.806 -5.42,0.203 -11.473,-2.153 -12.752,-1.465 -0.945,0.509 -0.744,5.346 -2.879,7.233 -5.494,12.521 -5.078,5.05 -3.338,18.697 -1.861,-0.096 -3.824,-1.287 -5.543,-0.847 l -1.484,0.688 -4.277,0 0,1.982 -0.139,0.065 0,-0.953 -3.617,0 0,0.81 -2.211,0 0,-2.616 0.959,0 0,-0.867 -2.92,0 0,0.435 0,0.434 0,2.616 0,0.749 -2.338,0 0,-5.536 1.086,0 0,-1.519 -3.477,0 0,1.519 0.303,0 0,5.536 -0.404,0 0,1.806 -1.416,0 -0.57,0 0,-4.628 -1.871,0 0,-1.005 -1.467,0 0,-0.948 -0.85,0 0,-1.954 1.404,0 0,-1.411 -4.172,0 0,1.411 0.404,0 0,1.954 1.182,0 0,6.581 -2.547,0 0,1.776 -0.709,0 0,-2.171 0,-0.838 0,-6.542 0.834,0 0,-1.086 -4.033,0 0,1.086 0.836,0 0,6.542 -1.949,0 0,-0.79 -1.111,0 0,9.335 -2.504,0 0,-0.978 -1.74,0 0,-17.367 1.461,0 0,-1.411 -2.92,0 0,0.218 -0.766,0 0,3.69 0.348,0 0,8.792 -1.252,0 0,2.089 1.252,0 0,3.989 -0.643,0 0,5.252 -5.477,0.677 0,-10.596 -2.504,0 0,10.905 -1.252,0.155 0,-21.915 -1.529,0 0,-1.249 -2.088,0 0,-1.14 -2.365,0 0,2.279 1.184,0 0,6.514 -3.131,0 0,1.736 1.393,0 0.695,0 0,1.736 1.043,0 0,3.69 -1.738,0 0,9.156 -4.098,0.506 0,-10.964 0,-1.52 0,-7.161 0.48,0 0,-1.52 -2.504,0 0,1.52 1.049,0 0,7.164 -1.529,0 0,1.52 1.529,0 0,6.128 -2.699,0 0,-1.662 -1.555,0 0,-5.386 -4.184,-3.581 -3.422,-0.078 0,-5.639 0.381,0 0,-0.89 -2.916,0 0,0.89 1.459,0 0,5.639 -2.473,0 0,-3.165 -0.887,0 0,3.165 -0.762,0 0,1.978 -2.281,0 -1.646,0 -0.811,0 0,0.939 0.811,0 0,8.951 -2.662,0 0,2.275 0.395,0 0,3.281 -0.273,0.021 -4.43,-0.468 0,-4.121 2.154,0 0,-1.087 -3.295,0 0,-2.078 0.506,0 0,-5.835 -2.027,0 0,5.736 -1.648,0 -1.773,0 0,-1.187 -1.27,0 0,2.571 -0.887,0 0,3.956 -1.773,0 0,0.986 -1.371,-0.145 c -0.934,0.198 -1.917,-0.107 -2.906,-0.676 -2.953,-3.592 -6.872,-6.296 -11.339,-7.678 -0.781,-0.646 -1.199,-1.546 -1.231,-3.274 l 0,-0.451 c 0.015,-0.801 0.097,-0.972 0.254,-2.137 l 1.077,0 0,-1.245 -4.962,0 c -0.169,-5.539 -1.53,-9.747 -2.071,-14.435 -1.752,4.951 -2.66,9.817 -2.877,14.435 l -4.27,0 0,1.245 1.129,0 0,0.053 c -0.071,0.767 0.001,1.433 0,2.209 -10e-4,0.942 -0.119,1.94 -0.212,2.863 -0.503,0.385 -1.065,0.764 -1.665,1.142 -3.048,1.13 -5.81,2.884 -8.146,5.116 -0.604,0.494 -1.148,1.008 -1.603,1.548 -0.529,0.628 -1.01,1.291 -1.451,1.986 -2.411,3.39 -4.013,7.439 -4.51,11.842 -3.357,0.769 -9.961,2.221 -8.263,-1.076 -0.839,-5.033 8.271,-40.155 8.533,-40.464 1.788,1.046 2.021,2.892 2.895,4.664 0.075,0.152 0.169,0.336 0.241,0.477 l 0.924,1.515 c 0.229,-6.152 -2.243,-6.186 -0.365,-9.738 1.734,0.77 2.889,3.81 3.814,5.751 0.661,1.39 0.5,1.011 0.873,2.653 l 0.451,-1.098 c 0.747,-2.964 -0.019,2.342 0.234,-1.121 0.121,-1.643 -0.73,-2.925 -1.464,-4.237 -1.265,-2.258 -2.141,-3.558 -2.438,-5.862 2.746,0.505 1.07,-1.466 3.877,2.245 1.001,-2.413 -0.908,-4.266 -0.566,-5.725 0.276,-1.17 2.159,1.124 1.586,-1.335 -2.628,-3.036 -5.13,-1.811 -7.691,-0.401 0.826,-2.718 -0.195,0.136 1.164,-2.062 0.576,-0.934 0.586,-0.953 0.977,-1.62 l 2.76,-3.145 c -2.85,-1.088 -0.256,-1.583 -3.383,-1.301 0,0 -0.143,-0.228 -1.775,1.191 -0.24,0.209 0.504,1.247 -0.823,0.74 -1.345,-0.738 -1.374,-1.403 -2.399,-2.796 l -2.49,1.808 c 2.138,2.151 0.836,0.753 0.664,3.184 -4.152,2.001 -5.952,-1.984 -9.382,3.123 2.639,-0.177 5.275,-1.74 7.913,-0.528 l 0.047,3.444 -2.31,-0.074 0.046,1.64 c -0.402,0.278 -0.119,1.516 -0.729,2.012 -0.78,0.632 -2.375,0.554 -1.805,1.104 l -0.551,1.254 -2.414,-0.871 -0.43,0.709 -1.101,1.315 -3.422,-1.046 c -3.286,2.406 3.528,1.307 -0.29,4.092 -3.027,1.192 -0.027,-1.059 -3.793,0.622 l -2.434,3.452 c 1.098,0.389 3.768,-1.665 5.509,-2.166 -0.103,0.583 0.753,1.922 0.567,2.767 -0.196,0.895 -3.269,2.763 -3.564,3.764 -0.424,1.445 1.678,0.328 1.686,1.894 0.011,2.11 -0.645,5.045 -0.044,6.068 0.95,-2.39 1.026,-7.69 4.368,-7.946 -0.529,1.531 -1.475,2.87 -1.618,4.329 -0.104,1.066 1.44,0.637 1.632,1.021 0.285,0.568 -0.727,1.743 -0.92,2.597 1.064,0.83 0.006,0.813 1.296,0.777 1.622,-0.044 -0.376,-0.163 1.388,-0.342 0.607,2.959 0.785,22.066 -1.549,25.59 -1.055,-0.728 -1.867,-1.819 -2.517,-3.115 -0.88,-2.834 -1.706,-5.735 -2.47,-8.672 -0.176,-0.869 -0.345,-1.7 -0.523,-2.462 l -0.383,-1.149 c -0.764,-3.17 -1.455,-6.366 -2.065,-9.549 -1.69,-8.808 -3.113,-17.506 -3.523,-25.263 l 2.106,-1.963 c 0.479,-1.587 -0.495,-1.402 0.343,-3.39 1.725,0.84 3.031,2.962 3.716,4.178 -0.152,-7.62 -2.215,-5.32 0.113,-5.57 1.316,0.837 2.434,2.315 3.433,4.175 -0.225,-2.212 -0.942,-4.232 -2.479,-5.933 0.688,-1.898 1.346,-5.521 0.268,-6.548 -1.163,-2.148 -2.184,0.442 -3.277,1.026 -0.558,0.298 -1.619,0.376 -1.766,-0.352 0.203,-1.813 0.39,-1.587 0.669,-2.62 0.433,-1.604 0.208,0.017 0.328,-1.353 0.099,-1.111 0.083,-0.748 -0.13,-1.311 -3.525,-1.313 -1.615,0.199 -2.019,0.39 l 0.049,1.451 c -2.374,0.613 -3.352,-3.229 -3.802,-0.269 -3.925,1.304 0.378,-1.123 0.074,2.78 -2.135,0.24 -2.625,-0.344 -5.155,1.569 0.159,0.102 0.435,0 0.53,0.208 0.299,0.649 3.657,0.054 4.025,0.05 1.08,0.181 0.852,1.401 0.6,2.24 -0.238,0.8 -3.158,3.25 -3.58,4.159 -0.342,0.739 1.947,-0.037 1.506,0.695 -1.289,2.148 -0.41,6.603 -0.197,6.151 0.686,-1.551 0.59,-3.008 1.44,-4.519 l 2.7,-3.606 0.837,0.465 c -1.46,2.491 -2.04,5.032 -0.647,7.683 0.227,7.853 1.126,16.67 2.838,25.588 0.582,3.033 1.238,6.08 1.959,9.104 0.961,5.863 3.487,11.776 3.641,17.477 -3.91,1.631 -9.547,3.945 -13.414,4.91 -0.396,-0.643 -0.604,-0.99 -1.043,-1.614 0.645,-1.974 1.869,-2.729 2.708,-4.611 -6.235,-1.258 -2.898,3.588 -8.183,4.602 l -0.164,-9.913 c 4.207,-0.145 8.314,-0.919 12.187,-2.218 0.554,-0.144 1.048,-0.314 1.46,-0.519 l -14.573,-6.664 c -5.159,2.189 -9.644,4.393 -14.824,6.593 4.814,1.884 9.025,2.775 13.845,2.829 l -0.178,10.194 -4.344,0.029 -0.436,2.688 c -6.368,0.214 -7.5,3.516 -12.864,4.125 -3.667,0.416 -11.667,-0.36 -15.974,-0.361 3.09,-7.49 4.969,-5.953 9.375,-8.813 16.026,-11.179 0.14,-24.38 -8.945,-32.469 -0.553,1.279 -7.089,33.405 -7.043,34.352 l 9.491,0.581 c -1.308,2.007 -5.214,3.41 -8.132,3.043 -3.944,-0.499 -2.475,0.412 -2.614,-3.099 l 6.659,-34.114 -0.268,-1.887 -7.141,36.447 c -0.136,0.116 -0.121,0.208 -0.275,1.409 -1.689,-0.123 -2.145,-0.742 -4.831,-0.956 -2.128,0.202 -8.026,2.127 -10.721,3.257 l -1.552,-1.727 -7.765,-0.025 0,0.006 -14.307,0 0,-46.299 2.945,0 0,-1.478 -2.945,0 0,-0.003 -2.347,-0.011 -0.391,-8.505 -11.014,0.136 0.18,8.332 -4.647,0.055 0,1.291 1.61,0 0,10.181 -9.258,0 0,-4.115 -0.449,-0.003 -0.198,-0.246 -0.59,-0.872 -1.935,0 0,-2.852 -3.076,-4.537 -4.419,5.273 0,11.968 0,7.24 -12.153,0 0,-21.147 c -1.878,-0.088 -2.573,0.081 -3.204,0.323 l 0,1.457 -8.463,0 0,-1.654 -0.647,-1.546 -2.922,0 0,0.517 -9.786,0 0,2.992 -5.157,0 0,-1.254 c -0.091,-0.033 -0.066,-0.023 0,-0.006 l 0,-0.234 c -0.092,-0.059 -0.206,-0.128 -0.348,-0.209 l -1.782,-0.464 -2.63,0 0,-0.685 -0.728,-0.189 -0.748,0 0.001,18.622 0,0 0,1.339 0,6.72 0,0 0,1.021 -1.554,0 c -0.543,0.357 -1.014,0.69 -1.469,1.126 l 0,3.519 -1.718,0 0,-9.079 c -0.244,-12.484 -0.708,-33.923 0.335,-37.206 0.138,-0.434 0.301,-0.82 0.477,-1.178 0.188,-0.143 0.367,-0.301 0.538,-0.47 l 0,-0.823 0.696,0 c 0.746,-1.052 1.229,-2.397 1.325,-3.876 l 0.589,0 0,-0.5 -0.571,0 0,-0.041 c 0,-1.356 -0.325,-2.618 -0.885,-3.674 l -0.486,0 0,-0.785 c -0.641,-0.89 -1.47,-1.567 -2.411,-1.936 -0.216,-0.442 -0.422,-0.991 -0.612,-1.698 C 242.772,18.587 243.27,5.539 243.317,0 c -0.606,0.844 -0.333,0.181 -0.706,1.592 l -0.859,20.218 c -0.087,1.091 -0.23,1.832 -0.416,2.353 -1.053,0.365 -1.977,1.113 -2.666,2.116 l 0,0.669 -0.405,0 c -0.56,1.056 -0.885,2.317 -0.885,3.674 l 0,0.041 -0.233,0 0,0.5 0.25,0 c 0.095,1.479 0.58,2.824 1.326,3.876 l 0.595,0 0,0.723 c 0.256,0.266 0.532,0.502 0.825,0.706 0.053,0.116 0.105,0.236 0.155,0.356 1.897,4.632 0.515,36.425 0.507,44.469 l -1.313,0.849 c -1.717,1.397 -0.097,0.634 -2.097,3.269 l -5.445,-1.229 c 1.127,-10.385 0.414,-24.292 0.354,-35.471 l -2.661,0 0,-1.392 -4.761,0 0,-1.342 -5.072,0 0,-1.445 -2.349,0 0,-2.58 -5.586,0 0,4.953 -5.984,0 0,-1.754 -4.099,0 0,3.56 -0.062,0 c 0.176,3.939 -0.28,8.795 0.001,12.546 l -6.594,-0.003 -0.047,-20.798 -0.373,0 0,-1.821 -3.114,0 -0.721,-2.101 -3.306,0 0,-2.476 -3.834,0 0.132,2.889 -10.71,0 0,-1.238 -4.496,0 -0.112,4.747 c -0.265,5.326 -0.555,10.7 -0.564,16.31 l 0,0.585 c 0.003,1.748 0.034,3.52 0.103,5.319 l -0.103,0 0,0.243 -16.153,0 0,-0.076 0,0 0,1.736 -10.371,0 -0.262,0.137 0,3.919 -5.504,0 -0.033,5.939 -8.141,-0.002 0.002,-33.888 0,-0.697 0,-2.883 0,0 0,-2.108 -1.91,0 0,-2.844 -9.943,0 0,2.844 -2.14,0 0,-0.037 -2.284,0 0,0.037 -0.007,0 0,1.672 -0.948,0 0,0.575 0.739,0 c 0.014,0.125 0.033,0.258 0.057,0.397 l 0.027,0.135 -0.823,0 0,0.574 0.942,0 0.005,0.029 0,0.502 -0.948,0 0,0.576 0.948,0 0,0.53 -0.948,0 0,0.575 0.948,0 0,0.122 0.007,0 0,0.41 -0.955,0 0,0.575 0.955,0 0,0.53 -0.955,0 0,0.575 0.955,0 0,0.531 -0.955,0 0,0.574 0.955,0 0,0.532 -0.955,0 0,0.575 0.94,0 c -0.01,0.178 -0.021,0.354 -0.031,0.532 l -0.909,0 0,0.574 0.879,0 c -0.008,0.177 -0.016,0.354 -0.023,0.532 l -0.856,0 0,0.575 0.838,0 c -0.003,0.176 -0.006,0.353 -0.008,0.531 l -0.831,0 0,0.575 0.833,0 c 0.002,0.176 0.006,0.353 0.012,0.531 l -0.845,0 0,0.575 0.872,0 c 0.01,0.176 0.023,0.353 0.038,0.53 l -0.91,0 0,0.575 0.955,0 0,0.532 -0.955,0 0,0.574 0.955,0 0,0.531 -0.955,0 0,0.575 0.955,0 0,0.532 -0.955,0 0,0.574 0.955,0 0,0.531 -0.955,0 0,0.576 0.955,0 0,0.531 -0.955,0 0,0.574 0.955,0 0,0.531 -0.955,0 0,0.576 0.955,0 0,0.531 -0.955,0 0,0.575 0.955,0 0,0.53 -0.955,0 0,0.576 0.955,0 0,0.53 -0.955,0 0,0.576 0.955,0 0,0.53 -0.955,0 0,0.575 0.955,0 0,0.532 -0.955,0 0,0.575 0.955,0 0,0.53 -0.955,0 0,0.576 0.955,0 0,0.53 -0.955,0 0,0.576 0.955,0 0,0.531 -0.955,0 0,0.574 0.955,0 0,0.532 -0.955,0 0,0.575 0.955,0 0,0.53 -0.955,0 0,0.576 0.955,0 0,0.53 -0.955,0 0,0.577 0.955,0 0,0.53 -0.955,0 0,0.575 0.955,0 0,0.531 -0.955,0 0,0.575 0.955,0 0,0.53 -0.955,0 0,0.576 0.955,0 0,0.531 -0.955,0 0,0.575 0.955,0 0,0.531 -0.955,0 0,0.575 0.955,0 0,0.531 -0.955,0 0,0.575 0.955,0 0,0.048 c -0.032,0.187 -0.07,0.343 -0.111,0.483 l -0.843,0 0,0.575 0.642,0 c -0.058,0.158 -0.115,0.325 -0.166,0.53 l -0.476,0 0,0.576 0.367,0 c -0.009,0.064 -0.018,0.133 -0.025,0.204 l -0.035,0.327 -0.307,0 0,0.574 0.25,0 c -0.021,0.234 -0.035,0.406 -0.04,0.532 l -0.21,0 0,0.575 0.805,0 c 0.045,0.131 0.091,0.305 0.136,0.531 l -0.94,0 0,0.575 0.955,0 0,0.53 -0.955,0 0,0.577 0.955,0 0,0.531 -0.955,0 0,0.574 0.955,0 0,0.532 -0.955,0 0,0.575 0.955,0 0,0.531 -0.955,0 0,0.574 0.955,0 0,0.263 c -0.014,0.091 -0.028,0.182 -0.043,0.269 l -0.911,0 0,0.576 0.795,0 c -0.045,0.189 -0.094,0.368 -0.146,0.53 l -0.139,0 c -4.171,-1.5 -2.603,-2.903 -8.481,-2.633 l 0,-41.979 0,-3.612 0,-1.821 -1.236,0 0,-1.98 -2.824997,0 0,-2.717 -8.928003,0 0,1.918 -3.681,0 0,4.601 -0.025,0 -0.005,47.488 c -1.144,0.021 -1.698,-0.141 -2.436,-0.283 l 0,1.644 -1.342,0 0.041,-5.772 -7.371,0 0,-2.429 -3.768,0 0,-2.174 -3.439,0 0,-28.541 -2.315,0 0.513,-1.496 -3.113,0 0,-1.788 -8.68,0 0,3.066 -4.437,0 0,30.334 -1.603,-0.335 -0.513,-1.495 -6.552,0 0,3.195 -16.542,0 0,3.835 3.439,0 -0.118,3.6 -11.838,0 0,-2.832 -8.6809997,0 0,2.832 -6.8730003,0 0,15.263 358.769,0 0.583,-2.529 -0.554,-0.617 c 1.276,-0.271 3.272,-0.769 6.195,-1.564 l 6.362,-0.743 c 0.943,1.326 1.189,1.687 1.534,3.557 -4.715,0.235 -9.967,-0.983 -10.779,1.897 l 517.979,0 17.41,0 59.154,0 0,-5.805 c -3.557,0.048 -7.393,0.424 -10.898,-0.052 -1.314,-0.178 -1.713,-0.369 -1.994,-0.515 2.322,-6.547 6.459,-11.051 14.148,-12.022 1.098,-3.141 2.619,-4.526 3.928,-6.79 -4.279,-0.804 -7.197,0.656 -9.541,3.066 -2.527,-1.06 -4.977,-0.182 -7.58,0.109 1.076,1.059 4.539,1.46 3.229,3.176 l -4.959,12.233 c -1.75,-0.137 -9.471,2.2 -13.301,0.271 1.414,-2.623 7.191,-1.896 8.48,-8.313 -1.357,-1.464 -4.309,-1.941 -9.406,-1.651 l -3.736,-1.898 c 0.059,-0.164 0.195,-0.355 0.246,-0.468 0.053,-0.107 0.178,-0.329 0.234,-0.463 0.059,-0.133 0.158,-0.317 0.215,-0.464 l 0.279,-1.229 c -6.344,0.027 -8.723,3.799 -6.604,7.523 -3.143,-0.056 -6.867,1.541 -3.326,3.771 -3.174,0.964 -1.641,1.972 -4.152,2.92 -1.934,0.729 -4.666,0.313 -6.828,0.573 0.002,-3.486 0.877,-7.94 -1.281,-9.555 -0.408,0.688 -0.627,7.867 -0.65,9.722 l -11.318,0.742 c -0.453,-5.144 7.258,-34.865 7.484,-35.132 1.564,0.915 1.768,2.527 2.531,4.077 0.066,0.133 0.146,0.293 0.211,0.416 l 0.809,1.325 c 0.199,-5.378 -1.961,-5.407 -0.32,-8.512 1.516,0.672 2.523,3.329 3.332,5.026 0.578,1.213 0.439,0.883 0.764,2.318 l 0.395,-0.959 c 0.654,-2.59 -0.016,2.047 0.205,-0.98 0.105,-1.435 -0.637,-2.557 -1.279,-3.702 -1.104,-1.974 -1.871,-3.109 -2.131,-5.124 2.4,0.441 0.936,-1.281 3.387,1.962 0.877,-2.108 -0.791,-3.728 -0.494,-5.002 0.242,-1.023 1.887,0.981 1.387,-1.167 -2.297,-2.654 -4.484,-1.583 -6.723,-0.351 0.723,-2.376 -0.17,0.118 1.018,-1.804 0.504,-0.814 0.512,-0.831 0.854,-1.414 l 2.412,-2.75 c -2.488,-0.95 -0.225,-1.382 -2.957,-1.137 0,0 -0.123,-0.198 -1.551,1.042 -0.211,0.184 0.439,1.09 -0.719,0.648 -1.176,-0.647 -1.201,-1.228 -2.098,-2.445 l -2.176,1.581 c 1.867,1.881 0.729,0.657 0.578,2.782 -3.629,1.749 -5.201,-1.734 -8.197,2.729 2.305,-0.153 4.611,-1.521 6.916,-0.461 l 0.041,3.01 -2.02,-0.065 0.039,1.434 c -0.352,0.243 -0.102,1.325 -0.635,1.758 -0.682,0.553 -2.078,0.483 -1.58,0.964 l -0.48,1.096 -2.107,-0.761 -0.377,0.62 -0.961,1.149 -2.99,-0.913 c -2.873,2.102 3.082,1.142 -0.254,3.575 -2.646,1.041 -0.023,-0.926 -3.316,0.544 l -2.125,3.017 c 0.959,0.34 3.291,-1.455 4.814,-1.893 -0.092,0.51 0.656,1.681 0.494,2.418 -0.172,0.781 -2.855,2.415 -3.113,3.29 -0.373,1.262 1.465,0.285 1.471,1.653 0.01,1.845 -0.563,4.41 -0.039,5.303 0.832,-2.087 0.898,-6.72 3.818,-6.944 -0.461,1.34 -1.287,2.51 -1.412,3.785 -0.094,0.931 1.258,0.555 1.426,0.891 0.25,0.5 -0.637,1.525 -0.805,2.27 0.928,0.727 0.004,0.711 1.133,0.681 1.418,-0.039 -0.328,-0.143 1.213,-0.3 0.367,1.79 0.555,10.34 -0.041,16.457 -0.75,-0.074 0.469,0.027 -0.424,-0.647 l -1.037,-1.232 c 0.133,1.651 0.508,2.799 0.6,3.693 0.094,0.877 0.123,0.605 0.029,1.495 -0.152,1.461 0.049,0.539 -0.449,1.321 -2.389,-1.09 -2.25,-4.835 -3.063,-7.085 -0.334,-0.139 -0.641,-0.271 -0.92,-0.4 -0.139,-0.512 -0.273,-1.024 -0.408,-1.538 -0.152,-0.76 -0.299,-1.485 -0.455,-2.151 l -0.336,-1.003 c -0.668,-2.771 -1.271,-5.565 -1.805,-8.347 -1.479,-7.697 -2.721,-15.299 -3.08,-22.078 l 1.842,-1.716 c 0.418,-1.388 -0.434,-1.227 0.299,-2.963 1.508,0.734 2.65,2.588 3.248,3.651 -0.133,-6.66 -1.936,-4.649 0.1,-4.868 1.15,0.73 2.129,2.023 3,3.65 -0.197,-1.935 -0.824,-3.7 -2.166,-5.187 0.598,-1.659 1.174,-4.825 0.234,-5.723 -1.018,-1.877 -1.912,0.387 -2.865,0.897 -0.488,0.261 -1.416,0.328 -1.545,-0.308 0.178,-1.584 0.342,-1.387 0.586,-2.291 0.379,-1.401 0.182,0.016 0.287,-1.18 0.086,-0.972 0.072,-0.654 -0.113,-1.146 -3.08,-1.146 -1.412,0.174 -1.766,0.342 l 0.043,1.267 c -2.076,0.536 -2.928,-2.82 -3.322,-0.234 -3.43,1.14 0.33,-0.981 0.064,2.431 -1.865,0.208 -2.295,-0.301 -4.506,1.37 0.141,0.089 0.381,0.001 0.463,0.183 0.262,0.567 3.197,0.047 3.52,0.043 0.943,0.158 0.742,1.225 0.523,1.959 -0.209,0.697 -2.76,2.84 -3.129,3.634 -0.297,0.646 1.701,-0.032 1.316,0.608 -1.127,1.878 -0.357,5.771 -0.174,5.375 0.6,-1.354 0.518,-2.628 1.262,-3.948 l 2.357,-3.153 0.732,0.407 c -1.275,2.179 -1.785,4.399 -0.564,6.715 0.195,6.863 0.982,14.568 2.479,22.362 0.51,2.651 1.082,5.313 1.713,7.957 0.238,1.455 0.586,2.914 0.967,4.371 -2.42,-1.377 -2.234,-2.325 -4.18,-3.031 -5.074,-1.84 -4.072,1.308 -4.348,4.712 l -2.418,-0.037 c -1.4,-2.724 0.605,-0.189 -0.391,-2.713 -1.01,-2.559 -0.449,0.47 -1.793,-2.535 -0.219,-0.483 -0.406,-1.167 -0.568,-1.995 l -0.404,0 -1.918,-50.993 0.461,0 0,-0.158 0,-0.789 0,-0.301 1.209,0 0,-0.821 -1.209,0 0,-0.157 -0.25,0 0,-0.707 -0.764,0 -0.262,0 0,-5.099 0.742,0 0,-0.773 -0.742,0 0,-0.077 -5.844,-3.505 -6.191,3.543 0,0.039 -0.842,0 0,0.773 0.842,0 c 0,1.712 0.082,3.353 0.096,5.099 l -0.389,0 -0.764,0 0,0.707 -0.066,0 0,0.157 -1.133,0 0,0.821 1.133,0 0,0.301 0,0.789 0,0.158 0.398,0 -1.33,50.993 -1.955,0 -3.494,0 0,0.015 z M 383.847,63.423 c 3.328,7.145 5.014,15.141 3.993,24.094 l -2.065,2.545 c 1.209,-10.211 0.073,-18.917 -1.928,-26.639 l 0,0 z m 538.699,24.145 3.648,0.657 0,1.204 -2.947,-0.328 -0.701,-1.533 0,0 z m -33.508,6.749 c 0.225,-7.125 0.494,-14.692 0.014,-20.502 l 0.436,0.416 0.535,0.511 2.76,2.636 c 0.133,-3.235 -1.041,-4.938 -2.688,-6.094 l 0.951,-0.705 4.482,3.99 c -1.465,6.425 -2.932,12.59 -4.395,17.264 0.232,-3.494 0.619,-7.267 1.096,-10.992 l -0.691,0 c -0.826,5.868 -1.869,11.965 -2.5,13.476 l 0,0 z m 2.973,-27.359 1.443,1.819 1.777,0.521 1.111,-1.732 0.449,2.98 -0.83,2.446 -1.342,-1.138 -1.498,-1.949 -1.889,-1.561 0.779,-1.386 0,0 z m -1.067,-6.032 0.555,1.474 -1.332,1.818 -1.33,0.777 -0.279,-0.908 2.386,-3.161 0,0 z m 4.221,-1.949 1.6,-0.073 0.512,1.587 -1.426,0.804 -0.781,1.729 -1.787,-0.282 -0.504,-0.603 2.386,-3.162 0,0 z M 444.862,87.106 c 0.252,-9.155 0.76,-19.501 0.124,-27.169 l 0.499,0.476 0.613,0.585 3.16,3.016 c 0.15,-3.702 -1.194,-5.652 -3.077,-6.974 l 1.09,-0.806 5.126,4.566 c -2.513,11.016 -5.025,21.373 -7.535,26.306 l 0,0 z m 362.68,-10.197 1.252,0.188 1.518,10.827 c -3.469,-0.488 0.639,4.206 -4.242,3.971 -0.098,-5.46 -0.358,-12.492 1.472,-14.986 l 0,0 z m -13.086,4.321 1.965,-1.115 -0.359,11.362 -4.375,0.667 c -0.196,-4.775 -0.895,-8.731 2.769,-10.914 l 0,0 z m 7.324,-2.613 1.697,0 -0.359,14.149 -4.018,-0.209 c 0.893,-4.646 0.981,-9.922 2.68,-13.94 l 0,0 z m -14.47,3.654 1.697,0 -0.447,10.041 -2.186,-0.008 0.936,-10.033 0,0 z m -8.924,0.677 0.838,0 0,6.893 -0.838,-0.868 0,-6.025 0,0 z m -8.776,-1.261 c 3.465,0.814 8.844,-2.564 7.842,7.045 -2.166,-0.418 -6.094,-1.427 -8.146,-2.229 l 0.304,-4.816 0,0 z m -1.023,4.215 c -1.586,-0.649 -0.248,-0.831 -1.195,-1.345 l 0.277,-3.257 0.865,0.175 c 0.514,0.104 -0.414,0.159 0.053,0.188 l 0,4.239 0,0 z m -75.85,-53.349 8.205,0 0,10.337 -8.205,0 0,-10.337 0,0 z m 9.926,2.916 3.393,0 0,7.421 -3.393,0 0,-7.421 0,0 z m -11.953,-2.916 0,10.337 -8.205,0 0,-10.337 8.205,0 0,0 z m -13.121,2.916 3.391,0 0,7.421 -3.391,0 0,-7.421 0,0 z m -2.813,1.658 1.748,0 0,5.764 -1.748,0 0,-5.764 0,0 z m 32.409,0 1.748,0 0,5.764 -1.748,0 0,-5.764 0,0 z m -184.536,40.892 -1.396,0.108 0,-14.204 2.154,0 0,7.963 -0.758,0 0,6.133 0,0 z m 10.602,-19.048 0,-1.343 0.51,0 0,-0.926 1.471,0 0,-3.016 -0.543,0 0,-1.384 2.41,0 0,1.384 -0.873,0 0,9.545 -2.465,-2.321 -1.336,-0.08 0,-1.858 0.826,0 0,-0.001 z m -84.877,-6.88 1.652,2.081 2.033,0.595 1.27,-1.982 0.515,3.41 -0.948,2.799 -1.535,-1.3 -1.715,-2.231 -2.16,-1.785 0.888,-1.587 0,0 z m -1.221,-6.902 0.636,1.686 -1.526,2.082 -1.52,0.889 -0.319,-1.039 2.729,-3.618 0,0 z m 4.829,-2.231 1.833,-0.082 0.583,1.816 -1.631,0.917 -0.894,1.979 -2.046,-0.323 -0.575,-0.689 2.73,-3.618 z"
     id="path3"
     inkscape:connector-curvature="0"
     style="clip-rule:evenodd;fill:#2780e3;fill-rule:evenodd" /></svg>
